PathFileType	4	(X/Y/Z)	c:/Users/goper/Files/vsCode/490R/osim_files/C05/C05_Slow_05.trc
DataRate	CameraRate	NumFrames	NumMarkers	Units                	OrigDataRate	OrigDataStartFrame	OrigNumFrames
250.00	250.00	8	36	mm	250.0	2029	2705
                Frame#	Time	LPSIS			LASIS			LTH1			LTH2			LTH3			LTH4			LLFE			LMFE			LSH1			LSH2			LSH3			LSH4			LLMAL			LMMAL			LCAL			LMTP5			LTOE			LMTP1			RPSIS			RASIS			RTH1			RTH2			RTH3			RTH4			RLFE			RMFE			RSH1			RSH2			RSH3			RSH4			RLMAL			RMMAL			RCAL			RMTP1			RTOE			RMTP5		
		X1	Y1	Z1	X2	Y2	Z2	X3	Y3	Z3	X4	Y4	Z4	X5	Y5	Z5	X6	Y6	Z6	X7	Y7	Z7	X8	Y8	Z8	X9	Y9	Z9	X10	Y10	Z10	X11	Y11	Z11	X12	Y12	Z12	X13	Y13	Z13	X14	Y14	Z14	X15	Y15	Z15	X16	Y16	Z16	X17	Y17	Z17	X18	Y18	Z18	X19	Y19	Z19	X20	Y20	Z20	X21	Y21	Z21	X22	Y22	Z22	X23	Y23	Z23	X24	Y24	Z24	X25	Y25	Z25	X26	Y26	Z26	X27	Y27	Z27	X28	Y28	Z28	X29	Y29	Z29	X30	Y30	Z30	X31	Y31	Z31	X32	Y32	Z32	X33	Y33	Z33	X34	Y34	Z34	X35	Y35	Z35	X36	Y36	Z36

2029	8.11200	0.00000	0.00000	0.00000	-3773.81738	1005.48212	316.51434	-3731.29565	685.18433	350.98459	-3733.73999	624.36542	342.89029	-3660.69556	681.83722	349.97992	0.00000	0.00000	0.00000	-3709.12354	514.95825	329.31638	0.00000	0.00000	0.00000	-3531.83008	454.61914	334.06699	0.00000	0.00000	0.00000	-3571.13232	406.39752	351.91437	0.00000	0.00000	0.00000	0.00000	0.00000	0.00000	-3376.39990	243.15218	238.17734	-3297.81201	302.52643	263.31943	-3350.57886	114.70840	348.35678	-3394.44629	95.58218	289.71442	-3377.04199	97.33517	240.95361	0.00000	0.00000	0.00000	-3787.43042	1028.45007	87.35849	0.00000	0.00000	0.00000	0.00000	0.00000	0.00000	-3830.43530	710.68243	36.62164	0.00000	0.00000	0.00000	-3827.99170	538.15662	182.57118	-3851.12866	556.54901	76.07433	0.00000	0.00000	0.00000	0.00000	0.00000	0.00000	-3840.94165	393.31436	63.08647	-3840.72437	348.15335	68.25285	0.00000	0.00000	0.00000	0.00000	0.00000	0.00000	-3450.72656	352.63132	405.41620	0.00000	0.00000	0.00000	-3847.70020	652.52435	51.60537	0.00000	0.00000	0.00000
2030	8.11600	0.00000	0.00000	0.00000	-3777.71802	1006.01825	316.24173	-3738.20483	685.87817	350.68591	-3741.25000	625.10492	342.68631	-3667.88721	682.16687	349.52121	0.00000	0.00000	0.00000	-3718.03418	515.56531	329.06232	0.00000	0.00000	0.00000	-3541.22021	456.00803	333.57117	0.00000	0.00000	0.00000	-3580.17334	407.67636	351.69415	0.00000	0.00000	0.00000	0.00000	0.00000	0.00000	-3384.69897	245.57657	237.74303	-3304.82349	304.69580	262.07388	-3358.36670	117.86158	348.72861	-3402.64868	98.39906	290.48709	-3385.44434	99.74768	241.58746	0.00000	0.00000	0.00000	-3791.47900	1028.93884	86.97283	0.00000	0.00000	0.00000	0.00000	0.00000	0.00000	-3833.63013	710.92926	36.31581	0.00000	0.00000	0.00000	-3830.37817	538.24103	182.13156	-3853.27246	556.42603	75.59880	0.00000	0.00000	0.00000	0.00000	0.00000	0.00000	-3842.55542	393.18121	62.72388	-3842.06934	348.00284	67.98720	0.00000	0.00000	0.00000	0.00000	0.00000	0.00000	-3455.58984	353.93137	403.06467	0.00000	0.00000	0.00000	-3850.58569	652.60010	51.30066	0.00000	0.00000	0.00000
2031	8.12000	0.00000	0.00000	0.00000	-3781.62549	1006.57880	315.90533	-3745.17114	686.66370	350.43494	-3748.69702	625.85175	342.43616	-3674.85083	682.33258	348.97476	0.00000	0.00000	0.00000	-3726.80518	516.18719	328.79398	0.00000	0.00000	0.00000	-3550.34326	457.34076	333.04907	0.00000	0.00000	0.00000	-3589.08374	408.97662	351.39310	0.00000	0.00000	0.00000	0.00000	0.00000	0.00000	-3392.98389	248.05788	237.32211	-3313.54199	307.09546	261.16263	-3366.58228	120.91659	349.12497	-3413.74097	102.64320	290.23383	-3394.28564	102.10687	242.30013	0.00000	0.00000	0.00000	-3795.46997	1029.52344	86.61407	0.00000	0.00000	0.00000	0.00000	0.00000	0.00000	-3836.63989	711.08838	36.01176	0.00000	0.00000	0.00000	-3832.70410	538.24854	181.64990	-3855.35034	556.23297	75.13493	0.00000	0.00000	0.00000	0.00000	0.00000	0.00000	-3844.21704	393.03326	62.44761	-3843.55176	347.89331	67.70251	0.00000	0.00000	0.00000	0.00000	0.00000	0.00000	-3460.59595	355.18909	400.57629	0.00000	0.00000	0.00000	-3853.39893	652.71625	50.91799	0.00000	0.00000	0.00000
2032	8.12400	-3585.72266	1046.45532	243.79414	-3785.48071	1007.19501	315.57819	-3752.09277	687.50684	350.19531	-3756.17798	626.68390	342.24570	0.00000	0.00000	0.00000	0.00000	0.00000	0.00000	0.00000	0.00000	0.00000	0.00000	0.00000	0.00000	-3561.10352	460.10742	333.08096	0.00000	0.00000	0.00000	-3598.03296	410.37708	351.08386	0.00000	0.00000	0.00000	-3369.84229	273.60135	317.32703	-3401.36133	250.37852	236.86449	-3320.63940	308.87384	259.79651	-3374.42871	123.17821	349.63654	-3420.30688	103.58042	291.72498	-3403.62109	104.40572	243.01605	0.00000	0.00000	0.00000	-3799.41553	1030.08264	86.26781	0.00000	0.00000	0.00000	0.00000	0.00000	0.00000	-3839.63647	711.20642	35.70147	0.00000	0.00000	0.00000	-3835.06494	538.24835	181.22766	-3857.45898	556.13959	74.63875	0.00000	0.00000	0.00000	0.00000	0.00000	0.00000	-3845.91528	392.88409	62.14904	-3845.01147	347.72198	67.52473	0.00000	0.00000	0.00000	-3591.21655	399.91763	197.26599	0.00000	0.00000	0.00000	0.00000	0.00000	0.00000	-3856.23926	652.84155	50.61885	0.00000	0.00000	0.00000
2033	8.12800	0.00000	0.00000	0.00000	-3789.34863	1007.86798	315.25745	-3758.96265	688.34802	349.95392	-3763.61084	627.62006	342.08548	0.00000	0.00000	0.00000	0.00000	0.00000	0.00000	0.00000	0.00000	0.00000	0.00000	0.00000	0.00000	-3568.62256	460.36566	332.00421	0.00000	0.00000	0.00000	-3606.86865	411.83139	350.64240	0.00000	0.00000	0.00000	-3377.80786	274.37567	316.74313	-3409.76392	252.56174	236.36984	-3328.63867	310.58887	258.71597	-3384.28516	126.53011	349.98459	-3429.70532	106.31474	292.48410	-3413.14697	106.60198	243.72308	0.00000	0.00000	0.00000	-3803.40698	1030.69470	85.88077	0.00000	0.00000	0.00000	0.00000	0.00000	0.00000	-3842.57056	711.34930	35.36134	0.00000	0.00000	0.00000	-3837.32812	538.19617	180.80989	-3859.54272	555.95599	74.17442	0.00000	0.00000	0.00000	0.00000	0.00000	0.00000	-3847.57910	392.68057	61.92288	-3846.43359	347.54724	67.39545	0.00000	0.00000	0.00000	0.00000	0.00000	0.00000	-3580.40112	531.05750	232.28461	0.00000	0.00000	0.00000	-3858.92725	652.88409	50.30082	0.00000	0.00000	0.00000
2034	8.13200	0.00000	0.00000	0.00000	-3793.22144	1008.51788	314.89926	-3765.82861	689.27820	349.78119	-3770.99243	628.55511	341.91116	0.00000	0.00000	0.00000	0.00000	0.00000	0.00000	0.00000	0.00000	0.00000	0.00000	0.00000	0.00000	-3579.24878	463.33383	331.98254	0.00000	0.00000	0.00000	-3615.57202	413.31238	350.22372	0.00000	0.00000	0.00000	-3388.58154	277.10233	316.29459	-3418.27002	254.56662	235.92894	-3337.40479	312.12515	257.86011	-3393.52588	129.13322	350.42709	-3442.04858	110.69036	292.52921	-3422.87744	108.61163	244.45522	0.00000	0.00000	0.00000	-3807.31128	1031.32373	85.50193	0.00000	0.00000	0.00000	0.00000	0.00000	0.00000	-3845.45459	711.46338	35.04508	0.00000	0.00000	0.00000	-3839.53052	538.13049	180.38147	-3861.55151	555.77448	73.77217	0.00000	0.00000	0.00000	0.00000	0.00000	0.00000	-3849.20557	392.42673	61.71287	-3847.89062	347.33856	67.28100	0.00000	0.00000	0.00000	-3539.18896	421.07291	321.13113	0.00000	0.00000	0.00000	0.00000	0.00000	0.00000	-3861.58179	652.91949	50.02447	0.00000	0.00000	0.00000
2035	8.13600	0.00000	0.00000	0.00000	-3797.08130	1009.21094	314.52863	-3772.65479	690.29803	349.62924	-3778.33423	629.57642	341.73306	0.00000	0.00000	0.00000	0.00000	0.00000	0.00000	0.00000	0.00000	0.00000	0.00000	0.00000	0.00000	-3586.49585	463.60947	330.69720	0.00000	0.00000	0.00000	-3624.36743	414.89539	349.69699	0.00000	0.00000	0.00000	-3397.98853	278.87192	315.96185	-3426.96948	256.35724	235.42477	-3345.56885	313.39078	256.77280	-3403.09302	131.63931	350.89551	-3451.81299	113.04602	293.27991	-3432.87817	110.50114	245.12849	0.00000	0.00000	0.00000	-3811.19971	1031.92053	85.11382	0.00000	0.00000	0.00000	0.00000	0.00000	0.00000	-3848.27393	711.56757	34.73101	0.00000	0.00000	0.00000	-3841.52417	537.97742	179.96246	-3863.57739	555.67212	73.36917	0.00000	0.00000	0.00000	0.00000	0.00000	0.00000	-3850.82764	392.17960	61.54430	-3849.27197	347.18161	67.20128	0.00000	0.00000	0.00000	0.00000	0.00000	0.00000	-3544.53662	422.43948	318.24081	0.00000	0.00000	0.00000	-3864.22949	652.97577	49.77342	0.00000	0.00000	0.00000
2036	8.14000	0.00000	0.00000	0.00000	-3800.92456	1009.96027	314.13474	-3779.40308	691.34705	349.49518	-3785.72412	630.70605	341.68756	0.00000	0.00000	0.00000	0.00000	0.00000	0.00000	0.00000	0.00000	0.00000	0.00000	0.00000	0.00000	-3595.55273	465.29242	329.99051	0.00000	0.00000	0.00000	-3633.19824	416.54608	349.12692	0.00000	0.00000	0.00000	-3407.28906	280.47568	315.62357	-3435.84692	257.89655	234.90686	-3353.25830	314.27161	255.54509	-3412.83960	133.94992	351.34839	-3461.86328	115.31503	293.94482	-3444.66797	113.51970	245.00461	0.00000	0.00000	0.00000	-3815.08130	1032.48279	84.70867	0.00000	0.00000	0.00000	0.00000	0.00000	0.00000	-3851.05127	711.60358	34.46886	0.00000	0.00000	0.00000	-3843.57959	537.90344	179.63972	-3865.64624	555.51984	73.03030	0.00000	0.00000	0.00000	0.00000	0.00000	0.00000	-3852.38257	391.94559	61.40125	-3850.62061	346.98395	67.14128	0.00000	0.00000	0.00000	-3550.15601	423.25070	315.45782	0.00000	0.00000	0.00000	0.00000	0.00000	0.00000	-3866.82007	652.97681	49.43918	0.00000	0.00000	0.00000
